<?xml version="1.0" encoding="UTF-8" standalone="no"?>
<svg xmlns:rdf="http://www.w3.org/1999/02/22-rdf-syntax-ns#" xmlns="http://www.w3.org/2000/svg" height="244.12" width="1153.3" version="1.1" preserveAspectRatio="xMidYMid" xmlns:cc="http://creativecommons.org/ns#" xmlns:dc="http://purl.org/dc/elements/1.1/" viewBox="0 0 1153.2674 244.12061">
 <defs>
  <linearGradient id="linearGradient-1" y2="13.595" gradientUnits="userSpaceOnUse" x2="99.435" gradientTransform="scale(1.3081 .76445)" y1="88.059" x1="166.26">
   <stop stop-color="#80C3E6" offset="0"/>
   <stop stop-color="#3380C2" offset="1"/>
  </linearGradient>
  <linearGradient id="linearGradient-2" y2="119.52" gradientUnits="userSpaceOnUse" x2="218.07" gradientTransform="scale(.76803 1.302)" y1="152.66" x1="303.16">
   <stop stop-color="#F38649" offset="0"/>
   <stop stop-color="#F28147" offset=".1849"/>
   <stop stop-color="#EF7242" offset=".4091"/>
   <stop stop-color="#EA5A3A" offset=".6537"/>
   <stop stop-color="#E4382E" offset=".911"/>
   <stop stop-color="#E12A29" offset="1"/>
  </linearGradient>
  <linearGradient id="linearGradient-3" y2="31.517" gradientUnits="userSpaceOnUse" x2="128.76" gradientTransform="scale(1.107 .90336)" y1="117.99" x1="15.822">
   <stop stop-color="#42AB4A" offset="0"/>
   <stop stop-color="#ADD155" offset="1"/>
  </linearGradient>
  <linearGradient id="linearGradient-4" y2="109.43" gradientUnits="userSpaceOnUse" x2="112.1" gradientTransform="scale(1.3062 .76559)" y1="321.84" x1="34.305">
   <stop stop-color="#42AB4A" offset="0"/>
   <stop stop-color="#ADD155" offset="1"/>
  </linearGradient>
 </defs>
 <g transform="translate(-17.024 -2.3729)">
  <g transform="translate(14.769 2.3729)">
   <path fill="url(#linearGradient-1)" d="m188.47 101.98 49.002-78.398h-117.87l-16.286 26.127 85.152 52.271z"/>
   <path opacity=".15" d="m103.33 49.713 8.3397-13.41 76.812 65.681-85.152-52.271z"/>
   <path fill="url(#linearGradient-2)" d="m214.39 244.12v-117.86l-25.428-15.894-53.47 84.458 78.897 49.295z"/>
   <path opacity=".15" d="m135.5 194.82 13.209 8.2462 40.261-92.699-53.47 84.453z"/>
   <path fill="url(#linearGradient-3)" d="m24.554 0v117.86l27.271 15.892 136.64-31.78-163.91-101.97z"/>
   <path fill="url(#linearGradient-4)" d="m51.254 142.74-48.999 77.071h117.86l68.86-109.44-137.73 32.37z"/>
  </g>
  <path d="m289.9 169.88h14.855l7.4277-90.722h-15.213v-17.507h40.852l27.939 70.921c2.1184 6.1898 3.0042 10.432 3.0042 10.432h0.35217s0.88579-4.2421 3.1856-10.432l27.763-70.921h40.847v17.507h-15.026l7.2463 90.722h14.855v17.331h-51.466v-17.331h13.97l-4.5943-63.301c-0.35219-4.4289 0.53359-11.675 0.53359-11.675h-0.53359s-1.4194 6.8888-3.0042 11.142l-24.055 57.821h-19.807l-24.049-57.821c-1.5955-4.2528-2.8281-11.142-2.8281-11.142h-0.70968s0.88578 7.2356 0.53359 11.675l-4.5943 63.301h14.146v17.331h-51.642v-17.331h0.0108zm231.87-110.35c37.133 0 65.072 28.121 65.072 64.027 0 36.962-27.939 65.782-65.072 65.782-37.144 0-65.083-28.82-65.083-65.782 0-35.911 27.939-64.027 65.083-64.027zm0 109.47c22.635 0 41.21-19.626 41.21-45.447 0-24.764-18.569-43.691-41.21-43.691s-41.21 18.932-41.21 43.691c0 25.826 18.575 45.447 41.21 45.447zm76.593 0.88579h15.021v-90.722h-15.021v-17.507h54.288c10.096 0 18.046 0.53359 26.178 2.9988 24.401 7.2516 40.676 28.83 40.676 59.774 0 29.711-15.037 51.108-38.905 59.069-8.5002 2.9988-17.331 3.7032-27.774 3.7032h-54.464v-17.315zm53.408-1.2326c7.9506 0 14.322-0.70967 20.512-3.1962 14.327-5.8376 23.345-20.512 23.345-41.023 0-21.227-9.5461-35.719-24.231-41.381-6.3605-2.4759-12.203-2.8227-19.626-2.8227h-15.218v88.423h15.218zm81.048 1.2326h11.147l31.653-46.332-30.778-44.39h-11.147v-17.507h47.405v17.507h-12.379l17.331 26.002c2.3105 2.8174 3.5431 5.304 3.5431 5.304h0.34684c0 0.17082 1.2273-2.3105 3.3617-5.304l16.792-26.002h-12.027v-17.507h45.628v17.507h-10.965l-31.829 46.151 31.296 44.572h11.142v17.331h-47.576v-17.331h12.38l-17.507-26.349c-2.2945-2.9988-3.5324-5.4747-3.5324-5.4747h-0.35218c-0.35217 0-1.4194 2.4812-3.3563 5.4747l-16.798 26.349h12.193v17.331h-45.964l-0.004-17.331z"/>
  <g fill="#b3b3b3">
   <path style="" d="m871.8 175.73q0-2.3804 0.91553-4.4861 1.0071-2.1973 2.655-3.7537 1.648-1.648 3.7537-2.5635 2.1973-1.0071 4.6692-1.0071 2.3804 0 4.4861 1.0071 2.1973 0.91553 3.7537 2.5635 1.648 1.5564 2.5635 3.7537 1.0071 2.1057 1.0071 4.4861 0 2.4719-1.0071 4.6692-0.91552 2.1973-2.5635 3.9368-1.5564 1.648-3.7537 2.5635-2.1057 1.0071-4.4861 1.0071-2.4719 0-4.6692-1.0071-2.1057-0.91553-3.7537-2.5635-1.648-1.7395-2.655-3.9368-0.91553-2.1973-0.91553-4.6692z"/>
   <path style="" d="m902.63 139.38q0.0915-11.261 3.5706-20.508 3.5706-9.2468 9.8877-15.839 6.3171-6.6833 15.015-10.254 8.6975-3.5706 19.135-3.5706 10.529 0 19.226 3.5706 8.7891 3.5706 15.015 10.162 6.2256 6.5002 9.7046 15.747t3.479 20.508q0 11.078-3.479 20.416-3.479 9.2468-9.7046 15.93-6.2256 6.6834-15.015 10.437-8.6975 3.6621-19.226 3.6621-10.712 0-19.409-3.6621-8.6975-3.6621-14.923-10.254-6.2256-6.6834-9.7046-15.93-3.479-9.2468-3.5706-20.416zm18.036 0q0 8.1482 2.2888 14.74 2.3804 6.5918 6.4087 11.261 4.1199 4.5776 9.4299 7.1411 5.4016 2.4719 11.444 2.4719 6.3171 0 11.719-2.4719 5.4932-2.4719 9.5215-7.0496 4.0283-4.6692 6.3171-11.261t2.2888-14.832q0-8.606-2.2888-15.289-2.2888-6.6834-6.3171-11.169-3.9368-4.4861-9.4299-6.7749-5.4932-2.2888-11.81-2.2888-6.0425 0-11.444 2.2888-5.3101 2.2888-9.4299 6.7749-4.0283 4.4861-6.4087 11.169-2.2888 6.6834-2.2888 15.289z"/>
   <path style="" d="m1074.2 112.01h-17.395v-5.8594q-3.0212 0-6.2256 1.1902-3.1128 1.0986-5.8594 3.479-2.7465 2.2888-4.8523 5.9509-2.0141 3.5706-2.9296 8.5144v45.776h16.113v15.747h-47.058v-15.747h13.092l0.091-63.354h-13.184v-15.747h30.304v13.092q1.6479-2.9297 3.6621-5.4016 2.1057-2.5635 4.5776-4.3945 2.5635-1.9226 5.5848-2.9297 3.1127-1.0986 6.6833-1.0986 4.7607 0 8.9722 0 4.2114 0 8.4228 0.1831v20.599z"/>
   <path style="" d="m1153.3 178.47q-4.6692 4.9438-10.895 7.6904-6.1341 2.7466-14.008 2.7466-9.613 0-17.944-3.2959-8.2398-3.3874-14.374-9.7961-6.0425-6.5002-9.5215-15.839-3.3875-9.4299-3.3875-21.515 0-10.986 3.2959-19.958 3.2959-9.0637 9.3384-15.381 6.0425-6.4087 14.557-9.8877 8.5144-3.5706 18.951-3.5706 7.1411 0 12.817 1.6479 5.7678 1.5564 11.169 5.4932v-4.8523h17.029v91.095q0 22.522-10.712 34.058-10.62 11.536-33.142 11.536-4.9439 0-10.346-0.73242-5.4016-0.73242-10.712-2.3804-5.2186-1.5564-10.254-4.0283-4.9438-2.4719-9.1552-6.0425l9.1552-13.824q2.7466 2.3804 6.2256 4.3945 3.5706 2.0142 7.5989 3.3874 4.0283 1.4648 8.3313 2.2888 4.303 0.82397 8.606 0.82397 7.0495 0 12.176-1.4648 5.2185-1.4648 8.5144-5.2185 3.3874-3.6621 5.0354-9.9792 1.6479-6.3171 1.6479-16.022v-1.3733zm-22.705-4.3945q4.2114 0 7.6904-0.82397 3.479-0.82398 6.3171-2.1057 2.8382-1.3733 4.9439-3.1128 2.1972-1.7395 3.7536-3.6621v-51.91q-4.6692-4.1199-10.803-5.9509-6.0425-1.8311-12.451-1.8311-6.0424 0-11.352 2.2888-5.3101 2.1973-9.3384 6.5002-3.9367 4.303-6.2256 10.529-2.2888 6.2256-2.2888 14.282 0 8.7891 2.1973 15.472 2.1972 6.6834 6.134 11.261 3.9368 4.4861 9.4299 6.7749 5.4932 2.2888 11.994 2.2888z"/>
  </g>
 </g>
</svg>
